%TF.GenerationSoftware,KiCad,Pcbnew,5.1.6-1.fc32*%
%TF.CreationDate,2020-06-07T18:14:15-07:00*%
%TF.ProjectId,hypnos,6879706e-6f73-42e6-9b69-6361645f7063,rev?*%
%TF.SameCoordinates,Original*%
%TF.FileFunction,Paste,Top*%
%TF.FilePolarity,Positive*%
%FSLAX46Y46*%
G04 Gerber Fmt 4.6, Leading zero omitted, Abs format (unit mm)*
G04 Created by KiCad (PCBNEW 5.1.6-1.fc32) date 2020-06-07 18:14:15*
%MOMM*%
%LPD*%
G01*
G04 APERTURE LIST*
%ADD10R,0.600000X0.600000*%
%ADD11C,0.600000*%
%ADD12R,1.500000X1.500000*%
%ADD13R,0.700000X1.500000*%
%ADD14R,0.500000X0.800000*%
%ADD15R,1.000000X1.400000*%
%ADD16R,5.560000X10.605000*%
%ADD17R,5.560000X2.600000*%
G04 APERTURE END LIST*
D10*
%TO.C,U2*%
X119800000Y-116550000D03*
D11*
X122200000Y-116550000D03*
X121000000Y-116550000D03*
X119800000Y-115050000D03*
X119800000Y-107550000D03*
X119800000Y-113550000D03*
X119800000Y-112050000D03*
X119800000Y-110550000D03*
X119800000Y-109050000D03*
X127000000Y-115050000D03*
X125800000Y-115050000D03*
X124600000Y-115050000D03*
X123400000Y-115050000D03*
X122200000Y-115050000D03*
X121000000Y-115050000D03*
X127000000Y-107550000D03*
X125800000Y-107550000D03*
X124600000Y-107550000D03*
X123400000Y-107550000D03*
X122200000Y-107550000D03*
X121000000Y-107550000D03*
D12*
X129000000Y-114680000D03*
X129000000Y-112430000D03*
X129000000Y-110180000D03*
X129000000Y-107930000D03*
D11*
X125800000Y-113550000D03*
X127000000Y-113550000D03*
X127000000Y-112050000D03*
X125800000Y-112050000D03*
X125800000Y-110550000D03*
X127000000Y-110550000D03*
X127000000Y-109050000D03*
X125800000Y-109050000D03*
X124600000Y-113550000D03*
X124600000Y-112050000D03*
X124600000Y-110550000D03*
X124600000Y-109050000D03*
X123400000Y-113550000D03*
X123400000Y-112050000D03*
X123400000Y-110550000D03*
X123400000Y-109050000D03*
X122200000Y-113550000D03*
X122200000Y-112050000D03*
X122200000Y-110550000D03*
X122200000Y-109050000D03*
X121000000Y-113550000D03*
X121000000Y-112050000D03*
X121000000Y-110550000D03*
X121000000Y-109050000D03*
D13*
X127800000Y-118300000D03*
X126700000Y-118300000D03*
X125600000Y-118300000D03*
X124500000Y-118300000D03*
X123400000Y-118300000D03*
X122300000Y-118300000D03*
X121200000Y-118300000D03*
X120100000Y-118300000D03*
X120100000Y-104300000D03*
X121200000Y-104300000D03*
X122300000Y-104300000D03*
X123400000Y-104300000D03*
X124500000Y-104300000D03*
X125600000Y-104300000D03*
X126700000Y-104300000D03*
X127800000Y-104300000D03*
%TD*%
D14*
%TO.C,U1*%
X124900000Y-99300000D03*
X125800000Y-99300000D03*
X126700000Y-99300000D03*
X127600000Y-99300000D03*
X127600000Y-100500000D03*
X126700000Y-100500000D03*
X125800000Y-100500000D03*
X124900000Y-100500000D03*
%TD*%
D15*
%TO.C,SW1*%
X100800000Y-101900000D03*
X107800000Y-101900000D03*
%TD*%
%TO.C,Q1*%
X119800000Y-100600000D03*
X121700000Y-100600000D03*
X120750000Y-98400000D03*
%TD*%
%TO.C,C1*%
G36*
G01*
X121075000Y-120750001D02*
X121075000Y-119849999D01*
G75*
G02*
X121324999Y-119600000I249999J0D01*
G01*
X121975001Y-119600000D01*
G75*
G02*
X122225000Y-119849999I0J-249999D01*
G01*
X122225000Y-120750001D01*
G75*
G02*
X121975001Y-121000000I-249999J0D01*
G01*
X121324999Y-121000000D01*
G75*
G02*
X121075000Y-120750001I0J249999D01*
G01*
G37*
G36*
G01*
X119025000Y-120750001D02*
X119025000Y-119849999D01*
G75*
G02*
X119274999Y-119600000I249999J0D01*
G01*
X119925001Y-119600000D01*
G75*
G02*
X120175000Y-119849999I0J-249999D01*
G01*
X120175000Y-120750001D01*
G75*
G02*
X119925001Y-121000000I-249999J0D01*
G01*
X119274999Y-121000000D01*
G75*
G02*
X119025000Y-120750001I0J249999D01*
G01*
G37*
%TD*%
D16*
%TO.C,BT1*%
X113600000Y-111005000D03*
D17*
X113600000Y-122910000D03*
X113600000Y-99100000D03*
%TD*%
M02*
