%TF.GenerationSoftware,KiCad,Pcbnew,5.1.6-1.fc32*%
%TF.CreationDate,2020-06-07T18:14:15-07:00*%
%TF.ProjectId,hypnos,6879706e-6f73-42e6-9b69-6361645f7063,rev?*%
%TF.SameCoordinates,Original*%
%TF.FileFunction,Copper,L1,Top*%
%TF.FilePolarity,Positive*%
%FSLAX46Y46*%
G04 Gerber Fmt 4.6, Leading zero omitted, Abs format (unit mm)*
G04 Created by KiCad (PCBNEW 5.1.6-1.fc32) date 2020-06-07 18:14:15*
%MOMM*%
%LPD*%
G01*
G04 APERTURE LIST*
%TA.AperFunction,ComponentPad*%
%ADD10O,1.700000X1.700000*%
%TD*%
%TA.AperFunction,ComponentPad*%
%ADD11R,1.700000X1.700000*%
%TD*%
%TA.AperFunction,SMDPad,CuDef*%
%ADD12R,0.600000X0.600000*%
%TD*%
%TA.AperFunction,SMDPad,CuDef*%
%ADD13C,0.600000*%
%TD*%
%TA.AperFunction,SMDPad,CuDef*%
%ADD14R,1.500000X1.500000*%
%TD*%
%TA.AperFunction,SMDPad,CuDef*%
%ADD15R,0.700000X1.500000*%
%TD*%
%TA.AperFunction,SMDPad,CuDef*%
%ADD16R,0.500000X0.800000*%
%TD*%
%TA.AperFunction,SMDPad,CuDef*%
%ADD17R,1.000000X1.400000*%
%TD*%
%TA.AperFunction,SMDPad,CuDef*%
%ADD18R,5.560000X10.605000*%
%TD*%
%TA.AperFunction,SMDPad,CuDef*%
%ADD19R,5.560000X2.600000*%
%TD*%
%TA.AperFunction,ViaPad*%
%ADD20C,0.800000*%
%TD*%
%TA.AperFunction,Conductor*%
%ADD21C,0.250000*%
%TD*%
G04 APERTURE END LIST*
D10*
%TO.P,J3,7*%
%TO.N,VDD*%
X106700000Y-107460000D03*
%TO.P,J3,6*%
%TO.N,GND*%
X106700000Y-110000000D03*
%TO.P,J3,5*%
X106700000Y-112540000D03*
%TO.P,J3,4*%
%TO.N,/~RESET*%
X106700000Y-115080000D03*
%TO.P,J3,3*%
%TO.N,/SWDCLK*%
X106700000Y-117620000D03*
%TO.P,J3,2*%
%TO.N,/SWDIO*%
X106700000Y-120160000D03*
D11*
%TO.P,J3,1*%
%TO.N,VDD*%
X106700000Y-122700000D03*
%TD*%
D10*
%TO.P,J1,3*%
%TO.N,GND*%
X106880000Y-96800000D03*
%TO.P,J1,2*%
%TO.N,/OFF_SWITCH*%
X104340000Y-96800000D03*
D11*
%TO.P,J1,1*%
%TO.N,/USER_INPUT*%
X101800000Y-96800000D03*
%TD*%
D12*
%TO.P,U2,F6*%
%TO.N,Net-(U2-PadF6)*%
X119800000Y-116550000D03*
D13*
%TO.P,U2,F4*%
%TO.N,Net-(U2-PadF4)*%
X122200000Y-116550000D03*
%TO.P,U2,F5*%
%TO.N,Net-(U2-PadF5)*%
X121000000Y-116550000D03*
%TO.P,U2,E6*%
%TO.N,Net-(U2-PadE6)*%
X119800000Y-115050000D03*
%TO.P,U2,Z6*%
%TO.N,Net-(U2-PadZ6)*%
X119800000Y-107550000D03*
%TO.P,U2,D6*%
%TO.N,Net-(U2-PadD6)*%
X119800000Y-113550000D03*
%TO.P,U2,C6*%
%TO.N,Net-(U2-PadC6)*%
X119800000Y-112050000D03*
%TO.P,U2,B6*%
%TO.N,Net-(U2-PadB6)*%
X119800000Y-110550000D03*
%TO.P,U2,A6*%
%TO.N,Net-(U2-PadA6)*%
X119800000Y-109050000D03*
%TO.P,U2,E0*%
%TO.N,Net-(U2-PadE0)*%
X127000000Y-115050000D03*
%TO.P,U2,E1*%
%TO.N,Net-(U2-PadE1)*%
X125800000Y-115050000D03*
%TO.P,U2,E2*%
%TO.N,Net-(U2-PadE2)*%
X124600000Y-115050000D03*
%TO.P,U2,E3*%
%TO.N,Net-(U2-PadE3)*%
X123400000Y-115050000D03*
%TO.P,U2,E4*%
%TO.N,Net-(U2-PadE4)*%
X122200000Y-115050000D03*
%TO.P,U2,E5*%
%TO.N,Net-(U2-PadE5)*%
X121000000Y-115050000D03*
%TO.P,U2,Z0*%
%TO.N,Net-(U2-PadZ0)*%
X127000000Y-107550000D03*
%TO.P,U2,Z1*%
%TO.N,Net-(U2-PadZ1)*%
X125800000Y-107550000D03*
%TO.P,U2,Z2*%
%TO.N,Net-(U2-PadZ2)*%
X124600000Y-107550000D03*
%TO.P,U2,Z3*%
%TO.N,Net-(U2-PadZ3)*%
X123400000Y-107550000D03*
%TO.P,U2,Z4*%
%TO.N,Net-(U2-PadZ4)*%
X122200000Y-107550000D03*
%TO.P,U2,Z5*%
%TO.N,Net-(U2-PadZ5)*%
X121000000Y-107550000D03*
D14*
%TO.P,U2,F3*%
%TO.N,Net-(U2-PadF3)*%
X129000000Y-114680000D03*
%TO.P,U2,F2*%
%TO.N,Net-(U2-PadF2)*%
X129000000Y-112430000D03*
%TO.P,U2,F1*%
%TO.N,Net-(U2-PadF1)*%
X129000000Y-110180000D03*
%TO.P,U2,F0*%
%TO.N,Net-(U2-PadF0)*%
X129000000Y-107930000D03*
D13*
%TO.P,U2,D1*%
%TO.N,Net-(U2-PadD1)*%
X125800000Y-113550000D03*
%TO.P,U2,D0*%
%TO.N,Net-(U2-PadD0)*%
X127000000Y-113550000D03*
%TO.P,U2,C0*%
%TO.N,Net-(U2-PadC0)*%
X127000000Y-112050000D03*
%TO.P,U2,C1*%
%TO.N,Net-(U2-PadC1)*%
X125800000Y-112050000D03*
%TO.P,U2,B1*%
%TO.N,Net-(U2-PadB1)*%
X125800000Y-110550000D03*
%TO.P,U2,B0*%
%TO.N,Net-(U2-PadB0)*%
X127000000Y-110550000D03*
%TO.P,U2,A0*%
%TO.N,Net-(U2-PadA0)*%
X127000000Y-109050000D03*
%TO.P,U2,A1*%
%TO.N,Net-(U2-PadA1)*%
X125800000Y-109050000D03*
%TO.P,U2,D2*%
%TO.N,Net-(U2-PadD2)*%
X124600000Y-113550000D03*
%TO.P,U2,C2*%
%TO.N,Net-(U2-PadC2)*%
X124600000Y-112050000D03*
%TO.P,U2,B2*%
%TO.N,Net-(U2-PadB2)*%
X124600000Y-110550000D03*
%TO.P,U2,A2*%
%TO.N,Net-(U2-PadA2)*%
X124600000Y-109050000D03*
%TO.P,U2,D3*%
%TO.N,Net-(U2-PadD3)*%
X123400000Y-113550000D03*
%TO.P,U2,C3*%
%TO.N,Net-(U2-PadC3)*%
X123400000Y-112050000D03*
%TO.P,U2,B3*%
%TO.N,Net-(U2-PadB3)*%
X123400000Y-110550000D03*
%TO.P,U2,A3*%
%TO.N,Net-(U2-PadA3)*%
X123400000Y-109050000D03*
%TO.P,U2,D4*%
%TO.N,Net-(U2-PadD4)*%
X122200000Y-113550000D03*
%TO.P,U2,C4*%
%TO.N,Net-(U2-PadC4)*%
X122200000Y-112050000D03*
%TO.P,U2,B4*%
%TO.N,Net-(U2-PadB4)*%
X122200000Y-110550000D03*
%TO.P,U2,A4*%
%TO.N,Net-(U2-PadA4)*%
X122200000Y-109050000D03*
%TO.P,U2,D5*%
%TO.N,Net-(U2-PadD5)*%
X121000000Y-113550000D03*
%TO.P,U2,C5*%
%TO.N,Net-(U2-PadC5)*%
X121000000Y-112050000D03*
%TO.P,U2,B5*%
%TO.N,Net-(U2-PadB5)*%
X121000000Y-110550000D03*
%TO.P,U2,A5*%
%TO.N,Net-(U2-PadA5)*%
X121000000Y-109050000D03*
D15*
%TO.P,U2,16*%
%TO.N,/SWDIO*%
X127800000Y-118300000D03*
%TO.P,U2,15*%
%TO.N,/SWDCLK*%
X126700000Y-118300000D03*
%TO.P,U2,14*%
%TO.N,/~RESET*%
X125600000Y-118300000D03*
%TO.P,U2,13*%
%TO.N,Net-(U2-Pad13)*%
X124500000Y-118300000D03*
%TO.P,U2,12*%
%TO.N,Net-(U2-Pad12)*%
X123400000Y-118300000D03*
%TO.P,U2,11*%
%TO.N,Net-(SW1-Pad1)*%
X122300000Y-118300000D03*
%TO.P,U2,10*%
%TO.N,GND*%
X121200000Y-118300000D03*
%TO.P,U2,9*%
%TO.N,VDD*%
X120100000Y-118300000D03*
%TO.P,U2,8*%
%TO.N,Net-(U1-Pad8)*%
X120100000Y-104300000D03*
%TO.P,U2,7*%
%TO.N,/OFF_SWITCH_CTRL*%
X121200000Y-104300000D03*
%TO.P,U2,6*%
%TO.N,/USER_INPUT*%
X122300000Y-104300000D03*
%TO.P,U2,5*%
%TO.N,Net-(U1-Pad2)*%
X123400000Y-104300000D03*
%TO.P,U2,4*%
%TO.N,GND*%
X124500000Y-104300000D03*
%TO.P,U2,3*%
%TO.N,Net-(U1-Pad1)*%
X125600000Y-104300000D03*
%TO.P,U2,2*%
%TO.N,Net-(U1-Pad3)*%
X126700000Y-104300000D03*
%TO.P,U2,1*%
%TO.N,Net-(U1-Pad4)*%
X127800000Y-104300000D03*
%TD*%
D16*
%TO.P,U1,8*%
%TO.N,Net-(U1-Pad8)*%
X124900000Y-99300000D03*
%TO.P,U1,7*%
%TO.N,VDD*%
X125800000Y-99300000D03*
%TO.P,U1,6*%
%TO.N,Net-(U1-Pad6)*%
X126700000Y-99300000D03*
%TO.P,U1,5*%
%TO.N,GND*%
X127600000Y-99300000D03*
%TO.P,U1,4*%
%TO.N,Net-(U1-Pad4)*%
X127600000Y-100500000D03*
%TO.P,U1,3*%
%TO.N,Net-(U1-Pad3)*%
X126700000Y-100500000D03*
%TO.P,U1,2*%
%TO.N,Net-(U1-Pad2)*%
X125800000Y-100500000D03*
%TO.P,U1,1*%
%TO.N,Net-(U1-Pad1)*%
X124900000Y-100500000D03*
%TD*%
D17*
%TO.P,SW1,2*%
%TO.N,GND*%
X100800000Y-101900000D03*
%TO.P,SW1,1*%
%TO.N,Net-(SW1-Pad1)*%
X107800000Y-101900000D03*
%TD*%
%TO.P,Q1,1*%
%TO.N,/OFF_SWITCH_CTRL*%
X119800000Y-100600000D03*
%TO.P,Q1,2*%
%TO.N,GND*%
X121700000Y-100600000D03*
%TO.P,Q1,3*%
%TO.N,/OFF_SWITCH*%
X120750000Y-98400000D03*
%TD*%
%TO.P,C1,2*%
%TO.N,GND*%
%TA.AperFunction,SMDPad,CuDef*%
G36*
G01*
X121075000Y-120750001D02*
X121075000Y-119849999D01*
G75*
G02*
X121324999Y-119600000I249999J0D01*
G01*
X121975001Y-119600000D01*
G75*
G02*
X122225000Y-119849999I0J-249999D01*
G01*
X122225000Y-120750001D01*
G75*
G02*
X121975001Y-121000000I-249999J0D01*
G01*
X121324999Y-121000000D01*
G75*
G02*
X121075000Y-120750001I0J249999D01*
G01*
G37*
%TD.AperFunction*%
%TO.P,C1,1*%
%TO.N,VDD*%
%TA.AperFunction,SMDPad,CuDef*%
G36*
G01*
X119025000Y-120750001D02*
X119025000Y-119849999D01*
G75*
G02*
X119274999Y-119600000I249999J0D01*
G01*
X119925001Y-119600000D01*
G75*
G02*
X120175000Y-119849999I0J-249999D01*
G01*
X120175000Y-120750001D01*
G75*
G02*
X119925001Y-121000000I-249999J0D01*
G01*
X119274999Y-121000000D01*
G75*
G02*
X119025000Y-120750001I0J249999D01*
G01*
G37*
%TD.AperFunction*%
%TD*%
D18*
%TO.P,BT1,2*%
%TO.N,GND*%
X113600000Y-111005000D03*
D19*
%TO.P,BT1,3*%
%TO.N,VDD*%
X113600000Y-122910000D03*
%TO.P,BT1,1*%
X113600000Y-99100000D03*
%TD*%
D20*
%TO.N,GND*%
X121700000Y-121700000D03*
X113600000Y-104800000D03*
X124500000Y-102700000D03*
X102300000Y-101900000D03*
X122614801Y-100514801D03*
X128400000Y-99300000D03*
%TO.N,VDD*%
X118000000Y-119100000D03*
X106700000Y-99400000D03*
X109800000Y-99300000D03*
X117100000Y-123600000D03*
%TO.N,Net-(U1-Pad8)*%
X122194525Y-102045249D03*
X119900000Y-102314990D03*
%TO.N,Net-(U1-Pad2)*%
X123484095Y-102397408D03*
X125885988Y-101714012D03*
%TO.N,/USER_INPUT*%
X122300000Y-103100000D03*
X118300000Y-103100000D03*
%TD*%
D21*
%TO.N,GND*%
X114300000Y-110300000D02*
X115250000Y-111250000D01*
X115250000Y-111250000D02*
X115250000Y-112250000D01*
X121200000Y-119850000D02*
X121650000Y-120300000D01*
X121200000Y-118300000D02*
X121200000Y-119850000D01*
X121650000Y-121650000D02*
X121700000Y-121700000D01*
X121650000Y-120300000D02*
X121650000Y-121650000D01*
X113600000Y-111005000D02*
X113600000Y-104800000D01*
X124500000Y-104300000D02*
X124500000Y-102700000D01*
X100800000Y-101900000D02*
X102300000Y-101900000D01*
X121700000Y-100600000D02*
X122529602Y-100600000D01*
X122529602Y-100600000D02*
X122614801Y-100514801D01*
X127600000Y-99300000D02*
X128400000Y-99300000D01*
%TO.N,VDD*%
X115095000Y-123000000D02*
X115250000Y-123155000D01*
X120100000Y-119800000D02*
X119600000Y-120300000D01*
X120100000Y-118300000D02*
X120100000Y-119800000D01*
X118910172Y-120300000D02*
X119600000Y-120300000D01*
X118000000Y-119100000D02*
X118910172Y-120300000D01*
X124464999Y-97314999D02*
X115385001Y-97314999D01*
X115385001Y-97314999D02*
X113600000Y-99100000D01*
X125800000Y-98650000D02*
X124464999Y-97314999D01*
X125800000Y-99300000D02*
X125800000Y-98650000D01*
X113390000Y-122700000D02*
X113600000Y-122910000D01*
X106700000Y-122700000D02*
X113390000Y-122700000D01*
X106700000Y-107460000D02*
X106700000Y-99400000D01*
X113400000Y-99300000D02*
X113600000Y-99100000D01*
X109800000Y-99300000D02*
X113400000Y-99300000D01*
X105464999Y-108695001D02*
X105464999Y-121464999D01*
X105464999Y-121464999D02*
X106700000Y-122700000D01*
X106700000Y-107460000D02*
X105464999Y-108695001D01*
X116630000Y-122910000D02*
X113600000Y-122910000D01*
X117100000Y-123600000D02*
X116663018Y-122943018D01*
X116663018Y-122943018D02*
X116630000Y-122910000D01*
%TO.N,/~RESET*%
X108822512Y-117202512D02*
X106700000Y-115080000D01*
X125600000Y-120921264D02*
X123011254Y-123510010D01*
X120288746Y-123510010D02*
X113981248Y-117202512D01*
X113981248Y-117202512D02*
X108822512Y-117202512D01*
X123011254Y-123510010D02*
X120288746Y-123510010D01*
X125600000Y-118300000D02*
X125600000Y-120921264D01*
%TO.N,/SWDCLK*%
X113769994Y-117712522D02*
X107994603Y-117712522D01*
X107902081Y-117620000D02*
X106700000Y-117620000D01*
X120077492Y-124020020D02*
X113769994Y-117712522D01*
X126700000Y-121321264D02*
X124001244Y-124020020D01*
X126700000Y-118300000D02*
X126700000Y-121321264D01*
X124001244Y-124020020D02*
X120077492Y-124020020D01*
X107994603Y-117712522D02*
X107902081Y-117620000D01*
%TO.N,/SWDIO*%
X127800000Y-120942528D02*
X124212497Y-124530031D01*
X116869967Y-122233759D02*
X116869967Y-121533761D01*
X127800000Y-118300000D02*
X127800000Y-120942528D01*
X115496208Y-120160000D02*
X106700000Y-120160000D01*
X124212497Y-124530031D02*
X119166239Y-124530031D01*
X116869967Y-121533761D02*
X115496208Y-120160000D01*
X119166239Y-124530031D02*
X116869967Y-122233759D01*
%TO.N,Net-(SW1-Pad1)*%
X122300000Y-118300000D02*
X122610010Y-118610010D01*
X122610010Y-118610010D02*
X122610010Y-123000000D01*
X110434999Y-104534999D02*
X107800000Y-101900000D01*
X110434999Y-116615501D02*
X110434999Y-104534999D01*
X122610010Y-123000000D02*
X120500000Y-123000000D01*
X120500000Y-123000000D02*
X114192501Y-116692501D01*
X110511999Y-116692501D02*
X110434999Y-116615501D01*
X114192501Y-116692501D02*
X110511999Y-116692501D01*
%TO.N,Net-(U1-Pad8)*%
X124264999Y-99974775D02*
X122194525Y-102045249D01*
X124900000Y-99300000D02*
X124264999Y-99935001D01*
X124264999Y-99935001D02*
X124264999Y-99974775D01*
X120100000Y-104300000D02*
X120100000Y-102514990D01*
X120100000Y-102514990D02*
X119900000Y-102314990D01*
%TO.N,Net-(U1-Pad4)*%
X127600000Y-104100000D02*
X127800000Y-104300000D01*
X127600000Y-100500000D02*
X127600000Y-104100000D01*
%TO.N,Net-(U1-Pad3)*%
X126700000Y-100500000D02*
X126700000Y-104300000D01*
%TO.N,Net-(U1-Pad2)*%
X125800000Y-101628024D02*
X125885988Y-101714012D01*
X125800000Y-100500000D02*
X125800000Y-101628024D01*
X123400000Y-104300000D02*
X123400000Y-102481503D01*
X123400000Y-102481503D02*
X123484095Y-102397408D01*
%TO.N,Net-(U1-Pad1)*%
X125600000Y-102538196D02*
X125600000Y-104300000D01*
X124900000Y-100500000D02*
X124900000Y-101838196D01*
X124900000Y-101838196D02*
X125600000Y-102538196D01*
%TO.N,/OFF_SWITCH*%
X104340000Y-96800000D02*
X105644987Y-98104987D01*
X105644987Y-98104987D02*
X107288055Y-98104987D01*
X107288055Y-98104987D02*
X109968069Y-100785001D01*
X109968069Y-100785001D02*
X117614999Y-100785001D01*
X117614999Y-100785001D02*
X120000000Y-98400000D01*
X120000000Y-98400000D02*
X120750000Y-98400000D01*
%TO.N,/USER_INPUT*%
X122300000Y-104300000D02*
X122300000Y-103100000D01*
X111561804Y-103100000D02*
X107076802Y-98614998D01*
X118300000Y-103100000D02*
X111561804Y-103100000D01*
X107076802Y-98614998D02*
X103614998Y-98614998D01*
X103614998Y-98614998D02*
X101800000Y-96800000D01*
%TO.N,/OFF_SWITCH_CTRL*%
X121200000Y-102000000D02*
X121200000Y-104300000D01*
X119800000Y-100600000D02*
X121200000Y-102000000D01*
%TD*%
M02*
