%TF.GenerationSoftware,KiCad,Pcbnew,5.1.6-1.fc32*%
%TF.CreationDate,2020-06-07T18:14:15-07:00*%
%TF.ProjectId,hypnos,6879706e-6f73-42e6-9b69-6361645f7063,rev?*%
%TF.SameCoordinates,Original*%
%TF.FileFunction,Legend,Top*%
%TF.FilePolarity,Positive*%
%FSLAX46Y46*%
G04 Gerber Fmt 4.6, Leading zero omitted, Abs format (unit mm)*
G04 Created by KiCad (PCBNEW 5.1.6-1.fc32) date 2020-06-07 18:14:15*
%MOMM*%
%LPD*%
G01*
G04 APERTURE LIST*
%ADD10C,0.120000*%
%ADD11C,0.001000*%
%ADD12C,0.127000*%
%ADD13C,0.200000*%
%ADD14C,0.100000*%
%ADD15C,0.203200*%
%ADD16C,0.150000*%
G04 APERTURE END LIST*
D10*
%TO.C,J3*%
X108030000Y-106130000D02*
X105370000Y-106130000D01*
X108030000Y-121430000D02*
X108030000Y-106130000D01*
X105370000Y-121430000D02*
X105370000Y-106130000D01*
X108030000Y-121430000D02*
X105370000Y-121430000D01*
X108030000Y-122700000D02*
X108030000Y-124030000D01*
X108030000Y-124030000D02*
X106700000Y-124030000D01*
%TO.C,J1*%
X108210000Y-98130000D02*
X108210000Y-95470000D01*
X103070000Y-98130000D02*
X108210000Y-98130000D01*
X103070000Y-95470000D02*
X108210000Y-95470000D01*
X103070000Y-98130000D02*
X103070000Y-95470000D01*
X101800000Y-98130000D02*
X100470000Y-98130000D01*
X100470000Y-98130000D02*
X100470000Y-96800000D01*
D11*
%TO.C,U2*%
X135000000Y-118303020D02*
X128550000Y-118300000D01*
D12*
X128600000Y-104300000D02*
X128600000Y-103300000D01*
X128670000Y-103300000D02*
X139800000Y-103300000D01*
X139800000Y-103300000D02*
X139800000Y-118300000D01*
X139800000Y-118300000D02*
X128550000Y-118300000D01*
D13*
X128111803Y-102650000D02*
G75*
G03*
X128111803Y-102650000I-111803J0D01*
G01*
D12*
X119000000Y-118300000D02*
X119000000Y-104300000D01*
%TO.C,U1*%
X124505000Y-99200000D02*
X124505000Y-100600000D01*
X127995000Y-99200000D02*
X127995000Y-100600000D01*
D14*
X124950000Y-101300000D02*
G75*
G03*
X124950000Y-101300000I-50000J0D01*
G01*
D12*
%TO.C,SW1*%
X107300000Y-102930000D02*
X107300000Y-103800000D01*
X107300000Y-103800000D02*
X101300000Y-103800000D01*
X101300000Y-103800000D02*
X101300000Y-102930000D01*
X107300000Y-100870000D02*
X107300000Y-100000000D01*
X107300000Y-100000000D02*
X101300000Y-100000000D01*
X101300000Y-100000000D02*
X101300000Y-100870000D01*
D13*
X109000000Y-102000000D02*
G75*
G03*
X109000000Y-102000000I-100000J0D01*
G01*
D15*
%TO.C,Q1*%
X119327600Y-99652400D02*
X119327600Y-98839600D01*
X119327600Y-98839600D02*
X119986400Y-98839600D01*
X122172400Y-98839600D02*
X122172400Y-99652400D01*
X121513600Y-98839600D02*
X122172400Y-98839600D01*
D10*
%TO.C,C1*%
X120363748Y-119590000D02*
X120886252Y-119590000D01*
X120363748Y-121010000D02*
X120886252Y-121010000D01*
%TO.C,J3*%
D16*
X103677380Y-114873333D02*
X104391666Y-114873333D01*
X104534523Y-114920952D01*
X104629761Y-115016190D01*
X104677380Y-115159047D01*
X104677380Y-115254285D01*
X103677380Y-114492380D02*
X103677380Y-113873333D01*
X104058333Y-114206666D01*
X104058333Y-114063809D01*
X104105952Y-113968571D01*
X104153571Y-113920952D01*
X104248809Y-113873333D01*
X104486904Y-113873333D01*
X104582142Y-113920952D01*
X104629761Y-113968571D01*
X104677380Y-114063809D01*
X104677380Y-114349523D01*
X104629761Y-114444761D01*
X104582142Y-114492380D01*
%TO.C,J1*%
X109041666Y-96402380D02*
X109041666Y-97116666D01*
X108994047Y-97259523D01*
X108898809Y-97354761D01*
X108755952Y-97402380D01*
X108660714Y-97402380D01*
X110041666Y-97402380D02*
X109470238Y-97402380D01*
X109755952Y-97402380D02*
X109755952Y-96402380D01*
X109660714Y-96545238D01*
X109565476Y-96640476D01*
X109470238Y-96688095D01*
%TO.C,U1*%
X125538095Y-97152380D02*
X125538095Y-97961904D01*
X125585714Y-98057142D01*
X125633333Y-98104761D01*
X125728571Y-98152380D01*
X125919047Y-98152380D01*
X126014285Y-98104761D01*
X126061904Y-98057142D01*
X126109523Y-97961904D01*
X126109523Y-97152380D01*
X127109523Y-98152380D02*
X126538095Y-98152380D01*
X126823809Y-98152380D02*
X126823809Y-97152380D01*
X126728571Y-97295238D01*
X126633333Y-97390476D01*
X126538095Y-97438095D01*
%TO.C,SW1*%
X102966666Y-105439761D02*
X103109523Y-105487380D01*
X103347619Y-105487380D01*
X103442857Y-105439761D01*
X103490476Y-105392142D01*
X103538095Y-105296904D01*
X103538095Y-105201666D01*
X103490476Y-105106428D01*
X103442857Y-105058809D01*
X103347619Y-105011190D01*
X103157142Y-104963571D01*
X103061904Y-104915952D01*
X103014285Y-104868333D01*
X102966666Y-104773095D01*
X102966666Y-104677857D01*
X103014285Y-104582619D01*
X103061904Y-104535000D01*
X103157142Y-104487380D01*
X103395238Y-104487380D01*
X103538095Y-104535000D01*
X103871428Y-104487380D02*
X104109523Y-105487380D01*
X104300000Y-104773095D01*
X104490476Y-105487380D01*
X104728571Y-104487380D01*
X105633333Y-105487380D02*
X105061904Y-105487380D01*
X105347619Y-105487380D02*
X105347619Y-104487380D01*
X105252380Y-104630238D01*
X105157142Y-104725476D01*
X105061904Y-104773095D01*
%TO.C,Q1*%
X120654761Y-97097619D02*
X120559523Y-97050000D01*
X120464285Y-96954761D01*
X120321428Y-96811904D01*
X120226190Y-96764285D01*
X120130952Y-96764285D01*
X120178571Y-97002380D02*
X120083333Y-96954761D01*
X119988095Y-96859523D01*
X119940476Y-96669047D01*
X119940476Y-96335714D01*
X119988095Y-96145238D01*
X120083333Y-96050000D01*
X120178571Y-96002380D01*
X120369047Y-96002380D01*
X120464285Y-96050000D01*
X120559523Y-96145238D01*
X120607142Y-96335714D01*
X120607142Y-96669047D01*
X120559523Y-96859523D01*
X120464285Y-96954761D01*
X120369047Y-97002380D01*
X120178571Y-97002380D01*
X121559523Y-97002380D02*
X120988095Y-97002380D01*
X121273809Y-97002380D02*
X121273809Y-96002380D01*
X121178571Y-96145238D01*
X121083333Y-96240476D01*
X120988095Y-96288095D01*
%TO.C,C1*%
X123508333Y-120682142D02*
X123460714Y-120729761D01*
X123317857Y-120777380D01*
X123222619Y-120777380D01*
X123079761Y-120729761D01*
X122984523Y-120634523D01*
X122936904Y-120539285D01*
X122889285Y-120348809D01*
X122889285Y-120205952D01*
X122936904Y-120015476D01*
X122984523Y-119920238D01*
X123079761Y-119825000D01*
X123222619Y-119777380D01*
X123317857Y-119777380D01*
X123460714Y-119825000D01*
X123508333Y-119872619D01*
X124460714Y-120777380D02*
X123889285Y-120777380D01*
X124175000Y-120777380D02*
X124175000Y-119777380D01*
X124079761Y-119920238D01*
X123984523Y-120015476D01*
X123889285Y-120063095D01*
%TO.C,BT1*%
X109528571Y-111790714D02*
X109576190Y-111647857D01*
X109623809Y-111600238D01*
X109719047Y-111552619D01*
X109861904Y-111552619D01*
X109957142Y-111600238D01*
X110004761Y-111647857D01*
X110052380Y-111743095D01*
X110052380Y-112124047D01*
X109052380Y-112124047D01*
X109052380Y-111790714D01*
X109100000Y-111695476D01*
X109147619Y-111647857D01*
X109242857Y-111600238D01*
X109338095Y-111600238D01*
X109433333Y-111647857D01*
X109480952Y-111695476D01*
X109528571Y-111790714D01*
X109528571Y-112124047D01*
X109052380Y-111266904D02*
X109052380Y-110695476D01*
X110052380Y-110981190D02*
X109052380Y-110981190D01*
X110052380Y-109838333D02*
X110052380Y-110409761D01*
X110052380Y-110124047D02*
X109052380Y-110124047D01*
X109195238Y-110219285D01*
X109290476Y-110314523D01*
X109338095Y-110409761D01*
%TD*%
M02*
