%TF.GenerationSoftware,KiCad,Pcbnew,5.1.6-1.fc32*%
%TF.CreationDate,2020-06-07T18:14:15-07:00*%
%TF.ProjectId,hypnos,6879706e-6f73-42e6-9b69-6361645f7063,rev?*%
%TF.SameCoordinates,Original*%
%TF.FileFunction,Copper,L2,Bot*%
%TF.FilePolarity,Positive*%
%FSLAX46Y46*%
G04 Gerber Fmt 4.6, Leading zero omitted, Abs format (unit mm)*
G04 Created by KiCad (PCBNEW 5.1.6-1.fc32) date 2020-06-07 18:14:15*
%MOMM*%
%LPD*%
G01*
G04 APERTURE LIST*
%TA.AperFunction,ComponentPad*%
%ADD10O,1.700000X1.700000*%
%TD*%
%TA.AperFunction,ComponentPad*%
%ADD11R,1.700000X1.700000*%
%TD*%
%TA.AperFunction,ViaPad*%
%ADD12C,0.800000*%
%TD*%
%TA.AperFunction,Conductor*%
%ADD13C,0.250000*%
%TD*%
%TA.AperFunction,Conductor*%
%ADD14C,0.254000*%
%TD*%
G04 APERTURE END LIST*
D10*
%TO.P,J3,7*%
%TO.N,VDD*%
X106700000Y-107460000D03*
%TO.P,J3,6*%
%TO.N,GND*%
X106700000Y-110000000D03*
%TO.P,J3,5*%
X106700000Y-112540000D03*
%TO.P,J3,4*%
%TO.N,/~RESET*%
X106700000Y-115080000D03*
%TO.P,J3,3*%
%TO.N,/SWDCLK*%
X106700000Y-117620000D03*
%TO.P,J3,2*%
%TO.N,/SWDIO*%
X106700000Y-120160000D03*
D11*
%TO.P,J3,1*%
%TO.N,VDD*%
X106700000Y-122700000D03*
%TD*%
D10*
%TO.P,J1,3*%
%TO.N,GND*%
X106880000Y-96800000D03*
%TO.P,J1,2*%
%TO.N,/OFF_SWITCH*%
X104340000Y-96800000D03*
D11*
%TO.P,J1,1*%
%TO.N,/USER_INPUT*%
X101800000Y-96800000D03*
%TD*%
D12*
%TO.N,GND*%
X121700000Y-121700000D03*
X113600000Y-104800000D03*
X124500000Y-102700000D03*
X102300000Y-101900000D03*
X122614801Y-100514801D03*
X128400000Y-99300000D03*
%TO.N,VDD*%
X118000000Y-119100000D03*
X106700000Y-99400000D03*
X109800000Y-99300000D03*
X117100000Y-123600000D03*
%TO.N,Net-(U1-Pad8)*%
X122194525Y-102045249D03*
X119900000Y-102314990D03*
%TO.N,Net-(U1-Pad2)*%
X123484095Y-102397408D03*
X125885988Y-101714012D03*
%TO.N,/USER_INPUT*%
X122300000Y-103100000D03*
X118300000Y-103100000D03*
%TD*%
D13*
%TO.N,VDD*%
X106700000Y-99400000D02*
X109700000Y-99400000D01*
X109700000Y-99400000D02*
X109800000Y-99300000D01*
X117100000Y-123600000D02*
X118555086Y-121544913D01*
X118555086Y-121544913D02*
X118000000Y-119100000D01*
%TO.N,Net-(U1-Pad8)*%
X120169741Y-102045249D02*
X119900000Y-102314990D01*
X122194525Y-102045249D02*
X120169741Y-102045249D01*
%TO.N,Net-(U1-Pad2)*%
X125885988Y-101714012D02*
X124167491Y-101714012D01*
X124167491Y-101714012D02*
X123484095Y-102397408D01*
%TO.N,/USER_INPUT*%
X122300000Y-103100000D02*
X118300000Y-103100000D01*
%TD*%
D14*
%TO.N,GND*%
G36*
X129340001Y-124340000D02*
G01*
X117823711Y-124340000D01*
X117903937Y-124259774D01*
X118017205Y-124090256D01*
X118095226Y-123901898D01*
X118135000Y-123701939D01*
X118135000Y-123498061D01*
X118128068Y-123463211D01*
X119165650Y-121997785D01*
X119201243Y-121951955D01*
X119225560Y-121903361D01*
X119252467Y-121856139D01*
X119258996Y-121836542D01*
X119268237Y-121818074D01*
X119282606Y-121765671D01*
X119299785Y-121714106D01*
X119302365Y-121693614D01*
X119307826Y-121673697D01*
X119311696Y-121619489D01*
X119318483Y-121565572D01*
X119317015Y-121544972D01*
X119318486Y-121524370D01*
X119311705Y-121470439D01*
X119307844Y-121416243D01*
X119292510Y-121360286D01*
X118897383Y-119619922D01*
X118917205Y-119590256D01*
X118995226Y-119401898D01*
X119035000Y-119201939D01*
X119035000Y-118998061D01*
X118995226Y-118798102D01*
X118917205Y-118609744D01*
X118803937Y-118440226D01*
X118659774Y-118296063D01*
X118490256Y-118182795D01*
X118301898Y-118104774D01*
X118101939Y-118065000D01*
X117898061Y-118065000D01*
X117698102Y-118104774D01*
X117509744Y-118182795D01*
X117340226Y-118296063D01*
X117196063Y-118440226D01*
X117082795Y-118609744D01*
X117004774Y-118798102D01*
X116965000Y-118998061D01*
X116965000Y-119201939D01*
X117004774Y-119401898D01*
X117082795Y-119590256D01*
X117196063Y-119759774D01*
X117340226Y-119903937D01*
X117414441Y-119953526D01*
X117738869Y-121382493D01*
X116885795Y-122587331D01*
X116798102Y-122604774D01*
X116609744Y-122682795D01*
X116440226Y-122796063D01*
X116296063Y-122940226D01*
X116182795Y-123109744D01*
X116104774Y-123298102D01*
X116065000Y-123498061D01*
X116065000Y-123701939D01*
X116104774Y-123901898D01*
X116182795Y-124090256D01*
X116296063Y-124259774D01*
X116376289Y-124340000D01*
X100660000Y-124340000D01*
X100660000Y-121850000D01*
X105211928Y-121850000D01*
X105211928Y-123550000D01*
X105224188Y-123674482D01*
X105260498Y-123794180D01*
X105319463Y-123904494D01*
X105398815Y-124001185D01*
X105495506Y-124080537D01*
X105605820Y-124139502D01*
X105725518Y-124175812D01*
X105850000Y-124188072D01*
X107550000Y-124188072D01*
X107674482Y-124175812D01*
X107794180Y-124139502D01*
X107904494Y-124080537D01*
X108001185Y-124001185D01*
X108080537Y-123904494D01*
X108139502Y-123794180D01*
X108175812Y-123674482D01*
X108188072Y-123550000D01*
X108188072Y-121850000D01*
X108175812Y-121725518D01*
X108139502Y-121605820D01*
X108080537Y-121495506D01*
X108001185Y-121398815D01*
X107904494Y-121319463D01*
X107794180Y-121260498D01*
X107721620Y-121238487D01*
X107853475Y-121106632D01*
X108015990Y-120863411D01*
X108127932Y-120593158D01*
X108185000Y-120306260D01*
X108185000Y-120013740D01*
X108127932Y-119726842D01*
X108015990Y-119456589D01*
X107853475Y-119213368D01*
X107646632Y-119006525D01*
X107472240Y-118890000D01*
X107646632Y-118773475D01*
X107853475Y-118566632D01*
X108015990Y-118323411D01*
X108127932Y-118053158D01*
X108185000Y-117766260D01*
X108185000Y-117473740D01*
X108127932Y-117186842D01*
X108015990Y-116916589D01*
X107853475Y-116673368D01*
X107646632Y-116466525D01*
X107472240Y-116350000D01*
X107646632Y-116233475D01*
X107853475Y-116026632D01*
X108015990Y-115783411D01*
X108127932Y-115513158D01*
X108185000Y-115226260D01*
X108185000Y-114933740D01*
X108127932Y-114646842D01*
X108015990Y-114376589D01*
X107853475Y-114133368D01*
X107646632Y-113926525D01*
X107464466Y-113804805D01*
X107581355Y-113735178D01*
X107797588Y-113540269D01*
X107971641Y-113306920D01*
X108096825Y-113044099D01*
X108141476Y-112896890D01*
X108020155Y-112667000D01*
X106827000Y-112667000D01*
X106827000Y-112687000D01*
X106573000Y-112687000D01*
X106573000Y-112667000D01*
X105379845Y-112667000D01*
X105258524Y-112896890D01*
X105303175Y-113044099D01*
X105428359Y-113306920D01*
X105602412Y-113540269D01*
X105818645Y-113735178D01*
X105935534Y-113804805D01*
X105753368Y-113926525D01*
X105546525Y-114133368D01*
X105384010Y-114376589D01*
X105272068Y-114646842D01*
X105215000Y-114933740D01*
X105215000Y-115226260D01*
X105272068Y-115513158D01*
X105384010Y-115783411D01*
X105546525Y-116026632D01*
X105753368Y-116233475D01*
X105927760Y-116350000D01*
X105753368Y-116466525D01*
X105546525Y-116673368D01*
X105384010Y-116916589D01*
X105272068Y-117186842D01*
X105215000Y-117473740D01*
X105215000Y-117766260D01*
X105272068Y-118053158D01*
X105384010Y-118323411D01*
X105546525Y-118566632D01*
X105753368Y-118773475D01*
X105927760Y-118890000D01*
X105753368Y-119006525D01*
X105546525Y-119213368D01*
X105384010Y-119456589D01*
X105272068Y-119726842D01*
X105215000Y-120013740D01*
X105215000Y-120306260D01*
X105272068Y-120593158D01*
X105384010Y-120863411D01*
X105546525Y-121106632D01*
X105678380Y-121238487D01*
X105605820Y-121260498D01*
X105495506Y-121319463D01*
X105398815Y-121398815D01*
X105319463Y-121495506D01*
X105260498Y-121605820D01*
X105224188Y-121725518D01*
X105211928Y-121850000D01*
X100660000Y-121850000D01*
X100660000Y-110356890D01*
X105258524Y-110356890D01*
X105303175Y-110504099D01*
X105428359Y-110766920D01*
X105602412Y-111000269D01*
X105818645Y-111195178D01*
X105944255Y-111270000D01*
X105818645Y-111344822D01*
X105602412Y-111539731D01*
X105428359Y-111773080D01*
X105303175Y-112035901D01*
X105258524Y-112183110D01*
X105379845Y-112413000D01*
X106573000Y-112413000D01*
X106573000Y-110127000D01*
X106827000Y-110127000D01*
X106827000Y-112413000D01*
X108020155Y-112413000D01*
X108141476Y-112183110D01*
X108096825Y-112035901D01*
X107971641Y-111773080D01*
X107797588Y-111539731D01*
X107581355Y-111344822D01*
X107455745Y-111270000D01*
X107581355Y-111195178D01*
X107797588Y-111000269D01*
X107971641Y-110766920D01*
X108096825Y-110504099D01*
X108141476Y-110356890D01*
X108020155Y-110127000D01*
X106827000Y-110127000D01*
X106573000Y-110127000D01*
X105379845Y-110127000D01*
X105258524Y-110356890D01*
X100660000Y-110356890D01*
X100660000Y-107313740D01*
X105215000Y-107313740D01*
X105215000Y-107606260D01*
X105272068Y-107893158D01*
X105384010Y-108163411D01*
X105546525Y-108406632D01*
X105753368Y-108613475D01*
X105935534Y-108735195D01*
X105818645Y-108804822D01*
X105602412Y-108999731D01*
X105428359Y-109233080D01*
X105303175Y-109495901D01*
X105258524Y-109643110D01*
X105379845Y-109873000D01*
X106573000Y-109873000D01*
X106573000Y-109853000D01*
X106827000Y-109853000D01*
X106827000Y-109873000D01*
X108020155Y-109873000D01*
X108141476Y-109643110D01*
X108096825Y-109495901D01*
X107971641Y-109233080D01*
X107797588Y-108999731D01*
X107581355Y-108804822D01*
X107464466Y-108735195D01*
X107646632Y-108613475D01*
X107853475Y-108406632D01*
X108015990Y-108163411D01*
X108127932Y-107893158D01*
X108185000Y-107606260D01*
X108185000Y-107313740D01*
X108127932Y-107026842D01*
X108015990Y-106756589D01*
X107853475Y-106513368D01*
X107646632Y-106306525D01*
X107403411Y-106144010D01*
X107133158Y-106032068D01*
X106846260Y-105975000D01*
X106553740Y-105975000D01*
X106266842Y-106032068D01*
X105996589Y-106144010D01*
X105753368Y-106306525D01*
X105546525Y-106513368D01*
X105384010Y-106756589D01*
X105272068Y-107026842D01*
X105215000Y-107313740D01*
X100660000Y-107313740D01*
X100660000Y-102998061D01*
X117265000Y-102998061D01*
X117265000Y-103201939D01*
X117304774Y-103401898D01*
X117382795Y-103590256D01*
X117496063Y-103759774D01*
X117640226Y-103903937D01*
X117809744Y-104017205D01*
X117998102Y-104095226D01*
X118198061Y-104135000D01*
X118401939Y-104135000D01*
X118601898Y-104095226D01*
X118790256Y-104017205D01*
X118959774Y-103903937D01*
X119003711Y-103860000D01*
X121596289Y-103860000D01*
X121640226Y-103903937D01*
X121809744Y-104017205D01*
X121998102Y-104095226D01*
X122198061Y-104135000D01*
X122401939Y-104135000D01*
X122601898Y-104095226D01*
X122790256Y-104017205D01*
X122959774Y-103903937D01*
X123103937Y-103759774D01*
X123217205Y-103590256D01*
X123290167Y-103414110D01*
X123382156Y-103432408D01*
X123586034Y-103432408D01*
X123785993Y-103392634D01*
X123974351Y-103314613D01*
X124143869Y-103201345D01*
X124288032Y-103057182D01*
X124401300Y-102887664D01*
X124479321Y-102699306D01*
X124519095Y-102499347D01*
X124519095Y-102474012D01*
X125182277Y-102474012D01*
X125226214Y-102517949D01*
X125395732Y-102631217D01*
X125584090Y-102709238D01*
X125784049Y-102749012D01*
X125987927Y-102749012D01*
X126187886Y-102709238D01*
X126376244Y-102631217D01*
X126545762Y-102517949D01*
X126689925Y-102373786D01*
X126803193Y-102204268D01*
X126881214Y-102015910D01*
X126920988Y-101815951D01*
X126920988Y-101612073D01*
X126881214Y-101412114D01*
X126803193Y-101223756D01*
X126689925Y-101054238D01*
X126545762Y-100910075D01*
X126376244Y-100796807D01*
X126187886Y-100718786D01*
X125987927Y-100679012D01*
X125784049Y-100679012D01*
X125584090Y-100718786D01*
X125395732Y-100796807D01*
X125226214Y-100910075D01*
X125182277Y-100954012D01*
X124204814Y-100954012D01*
X124167491Y-100950336D01*
X124130168Y-100954012D01*
X124130158Y-100954012D01*
X124018505Y-100965009D01*
X123875244Y-101008466D01*
X123743214Y-101079038D01*
X123683501Y-101128044D01*
X123627490Y-101174011D01*
X123603692Y-101203010D01*
X123444293Y-101362408D01*
X123382156Y-101362408D01*
X123182197Y-101402182D01*
X123047034Y-101458169D01*
X122998462Y-101385475D01*
X122854299Y-101241312D01*
X122684781Y-101128044D01*
X122496423Y-101050023D01*
X122296464Y-101010249D01*
X122092586Y-101010249D01*
X121892627Y-101050023D01*
X121704269Y-101128044D01*
X121534751Y-101241312D01*
X121490814Y-101285249D01*
X120207063Y-101285249D01*
X120169740Y-101281573D01*
X120132417Y-101285249D01*
X120132408Y-101285249D01*
X120062830Y-101292102D01*
X120001939Y-101279990D01*
X119798061Y-101279990D01*
X119598102Y-101319764D01*
X119409744Y-101397785D01*
X119240226Y-101511053D01*
X119096063Y-101655216D01*
X118982795Y-101824734D01*
X118904774Y-102013092D01*
X118865000Y-102213051D01*
X118865000Y-102232737D01*
X118790256Y-102182795D01*
X118601898Y-102104774D01*
X118401939Y-102065000D01*
X118198061Y-102065000D01*
X117998102Y-102104774D01*
X117809744Y-102182795D01*
X117640226Y-102296063D01*
X117496063Y-102440226D01*
X117382795Y-102609744D01*
X117304774Y-102798102D01*
X117265000Y-102998061D01*
X100660000Y-102998061D01*
X100660000Y-99298061D01*
X105665000Y-99298061D01*
X105665000Y-99501939D01*
X105704774Y-99701898D01*
X105782795Y-99890256D01*
X105896063Y-100059774D01*
X106040226Y-100203937D01*
X106209744Y-100317205D01*
X106398102Y-100395226D01*
X106598061Y-100435000D01*
X106801939Y-100435000D01*
X107001898Y-100395226D01*
X107190256Y-100317205D01*
X107359774Y-100203937D01*
X107403711Y-100160000D01*
X109224130Y-100160000D01*
X109309744Y-100217205D01*
X109498102Y-100295226D01*
X109698061Y-100335000D01*
X109901939Y-100335000D01*
X110101898Y-100295226D01*
X110290256Y-100217205D01*
X110459774Y-100103937D01*
X110603937Y-99959774D01*
X110717205Y-99790256D01*
X110795226Y-99601898D01*
X110835000Y-99401939D01*
X110835000Y-99198061D01*
X110795226Y-98998102D01*
X110717205Y-98809744D01*
X110603937Y-98640226D01*
X110459774Y-98496063D01*
X110290256Y-98382795D01*
X110101898Y-98304774D01*
X109901939Y-98265000D01*
X109698061Y-98265000D01*
X109498102Y-98304774D01*
X109309744Y-98382795D01*
X109140226Y-98496063D01*
X108996289Y-98640000D01*
X107403711Y-98640000D01*
X107359774Y-98596063D01*
X107190256Y-98482795D01*
X107001898Y-98404774D01*
X106801939Y-98365000D01*
X106598061Y-98365000D01*
X106398102Y-98404774D01*
X106209744Y-98482795D01*
X106040226Y-98596063D01*
X105896063Y-98740226D01*
X105782795Y-98909744D01*
X105704774Y-99098102D01*
X105665000Y-99298061D01*
X100660000Y-99298061D01*
X100660000Y-98215010D01*
X100705820Y-98239502D01*
X100825518Y-98275812D01*
X100950000Y-98288072D01*
X102650000Y-98288072D01*
X102774482Y-98275812D01*
X102894180Y-98239502D01*
X103004494Y-98180537D01*
X103101185Y-98101185D01*
X103180537Y-98004494D01*
X103239502Y-97894180D01*
X103261513Y-97821620D01*
X103393368Y-97953475D01*
X103636589Y-98115990D01*
X103906842Y-98227932D01*
X104193740Y-98285000D01*
X104486260Y-98285000D01*
X104773158Y-98227932D01*
X105043411Y-98115990D01*
X105286632Y-97953475D01*
X105493475Y-97746632D01*
X105615195Y-97564466D01*
X105684822Y-97681355D01*
X105879731Y-97897588D01*
X106113080Y-98071641D01*
X106375901Y-98196825D01*
X106523110Y-98241476D01*
X106753000Y-98120155D01*
X106753000Y-96927000D01*
X107007000Y-96927000D01*
X107007000Y-98120155D01*
X107236890Y-98241476D01*
X107384099Y-98196825D01*
X107646920Y-98071641D01*
X107880269Y-97897588D01*
X108075178Y-97681355D01*
X108224157Y-97431252D01*
X108321481Y-97156891D01*
X108200814Y-96927000D01*
X107007000Y-96927000D01*
X106753000Y-96927000D01*
X106733000Y-96927000D01*
X106733000Y-96673000D01*
X106753000Y-96673000D01*
X106753000Y-96653000D01*
X107007000Y-96653000D01*
X107007000Y-96673000D01*
X108200814Y-96673000D01*
X108321481Y-96443109D01*
X108224157Y-96168748D01*
X108075178Y-95918645D01*
X107880269Y-95702412D01*
X107823408Y-95660000D01*
X129340000Y-95660000D01*
X129340001Y-124340000D01*
G37*
X129340001Y-124340000D02*
X117823711Y-124340000D01*
X117903937Y-124259774D01*
X118017205Y-124090256D01*
X118095226Y-123901898D01*
X118135000Y-123701939D01*
X118135000Y-123498061D01*
X118128068Y-123463211D01*
X119165650Y-121997785D01*
X119201243Y-121951955D01*
X119225560Y-121903361D01*
X119252467Y-121856139D01*
X119258996Y-121836542D01*
X119268237Y-121818074D01*
X119282606Y-121765671D01*
X119299785Y-121714106D01*
X119302365Y-121693614D01*
X119307826Y-121673697D01*
X119311696Y-121619489D01*
X119318483Y-121565572D01*
X119317015Y-121544972D01*
X119318486Y-121524370D01*
X119311705Y-121470439D01*
X119307844Y-121416243D01*
X119292510Y-121360286D01*
X118897383Y-119619922D01*
X118917205Y-119590256D01*
X118995226Y-119401898D01*
X119035000Y-119201939D01*
X119035000Y-118998061D01*
X118995226Y-118798102D01*
X118917205Y-118609744D01*
X118803937Y-118440226D01*
X118659774Y-118296063D01*
X118490256Y-118182795D01*
X118301898Y-118104774D01*
X118101939Y-118065000D01*
X117898061Y-118065000D01*
X117698102Y-118104774D01*
X117509744Y-118182795D01*
X117340226Y-118296063D01*
X117196063Y-118440226D01*
X117082795Y-118609744D01*
X117004774Y-118798102D01*
X116965000Y-118998061D01*
X116965000Y-119201939D01*
X117004774Y-119401898D01*
X117082795Y-119590256D01*
X117196063Y-119759774D01*
X117340226Y-119903937D01*
X117414441Y-119953526D01*
X117738869Y-121382493D01*
X116885795Y-122587331D01*
X116798102Y-122604774D01*
X116609744Y-122682795D01*
X116440226Y-122796063D01*
X116296063Y-122940226D01*
X116182795Y-123109744D01*
X116104774Y-123298102D01*
X116065000Y-123498061D01*
X116065000Y-123701939D01*
X116104774Y-123901898D01*
X116182795Y-124090256D01*
X116296063Y-124259774D01*
X116376289Y-124340000D01*
X100660000Y-124340000D01*
X100660000Y-121850000D01*
X105211928Y-121850000D01*
X105211928Y-123550000D01*
X105224188Y-123674482D01*
X105260498Y-123794180D01*
X105319463Y-123904494D01*
X105398815Y-124001185D01*
X105495506Y-124080537D01*
X105605820Y-124139502D01*
X105725518Y-124175812D01*
X105850000Y-124188072D01*
X107550000Y-124188072D01*
X107674482Y-124175812D01*
X107794180Y-124139502D01*
X107904494Y-124080537D01*
X108001185Y-124001185D01*
X108080537Y-123904494D01*
X108139502Y-123794180D01*
X108175812Y-123674482D01*
X108188072Y-123550000D01*
X108188072Y-121850000D01*
X108175812Y-121725518D01*
X108139502Y-121605820D01*
X108080537Y-121495506D01*
X108001185Y-121398815D01*
X107904494Y-121319463D01*
X107794180Y-121260498D01*
X107721620Y-121238487D01*
X107853475Y-121106632D01*
X108015990Y-120863411D01*
X108127932Y-120593158D01*
X108185000Y-120306260D01*
X108185000Y-120013740D01*
X108127932Y-119726842D01*
X108015990Y-119456589D01*
X107853475Y-119213368D01*
X107646632Y-119006525D01*
X107472240Y-118890000D01*
X107646632Y-118773475D01*
X107853475Y-118566632D01*
X108015990Y-118323411D01*
X108127932Y-118053158D01*
X108185000Y-117766260D01*
X108185000Y-117473740D01*
X108127932Y-117186842D01*
X108015990Y-116916589D01*
X107853475Y-116673368D01*
X107646632Y-116466525D01*
X107472240Y-116350000D01*
X107646632Y-116233475D01*
X107853475Y-116026632D01*
X108015990Y-115783411D01*
X108127932Y-115513158D01*
X108185000Y-115226260D01*
X108185000Y-114933740D01*
X108127932Y-114646842D01*
X108015990Y-114376589D01*
X107853475Y-114133368D01*
X107646632Y-113926525D01*
X107464466Y-113804805D01*
X107581355Y-113735178D01*
X107797588Y-113540269D01*
X107971641Y-113306920D01*
X108096825Y-113044099D01*
X108141476Y-112896890D01*
X108020155Y-112667000D01*
X106827000Y-112667000D01*
X106827000Y-112687000D01*
X106573000Y-112687000D01*
X106573000Y-112667000D01*
X105379845Y-112667000D01*
X105258524Y-112896890D01*
X105303175Y-113044099D01*
X105428359Y-113306920D01*
X105602412Y-113540269D01*
X105818645Y-113735178D01*
X105935534Y-113804805D01*
X105753368Y-113926525D01*
X105546525Y-114133368D01*
X105384010Y-114376589D01*
X105272068Y-114646842D01*
X105215000Y-114933740D01*
X105215000Y-115226260D01*
X105272068Y-115513158D01*
X105384010Y-115783411D01*
X105546525Y-116026632D01*
X105753368Y-116233475D01*
X105927760Y-116350000D01*
X105753368Y-116466525D01*
X105546525Y-116673368D01*
X105384010Y-116916589D01*
X105272068Y-117186842D01*
X105215000Y-117473740D01*
X105215000Y-117766260D01*
X105272068Y-118053158D01*
X105384010Y-118323411D01*
X105546525Y-118566632D01*
X105753368Y-118773475D01*
X105927760Y-118890000D01*
X105753368Y-119006525D01*
X105546525Y-119213368D01*
X105384010Y-119456589D01*
X105272068Y-119726842D01*
X105215000Y-120013740D01*
X105215000Y-120306260D01*
X105272068Y-120593158D01*
X105384010Y-120863411D01*
X105546525Y-121106632D01*
X105678380Y-121238487D01*
X105605820Y-121260498D01*
X105495506Y-121319463D01*
X105398815Y-121398815D01*
X105319463Y-121495506D01*
X105260498Y-121605820D01*
X105224188Y-121725518D01*
X105211928Y-121850000D01*
X100660000Y-121850000D01*
X100660000Y-110356890D01*
X105258524Y-110356890D01*
X105303175Y-110504099D01*
X105428359Y-110766920D01*
X105602412Y-111000269D01*
X105818645Y-111195178D01*
X105944255Y-111270000D01*
X105818645Y-111344822D01*
X105602412Y-111539731D01*
X105428359Y-111773080D01*
X105303175Y-112035901D01*
X105258524Y-112183110D01*
X105379845Y-112413000D01*
X106573000Y-112413000D01*
X106573000Y-110127000D01*
X106827000Y-110127000D01*
X106827000Y-112413000D01*
X108020155Y-112413000D01*
X108141476Y-112183110D01*
X108096825Y-112035901D01*
X107971641Y-111773080D01*
X107797588Y-111539731D01*
X107581355Y-111344822D01*
X107455745Y-111270000D01*
X107581355Y-111195178D01*
X107797588Y-111000269D01*
X107971641Y-110766920D01*
X108096825Y-110504099D01*
X108141476Y-110356890D01*
X108020155Y-110127000D01*
X106827000Y-110127000D01*
X106573000Y-110127000D01*
X105379845Y-110127000D01*
X105258524Y-110356890D01*
X100660000Y-110356890D01*
X100660000Y-107313740D01*
X105215000Y-107313740D01*
X105215000Y-107606260D01*
X105272068Y-107893158D01*
X105384010Y-108163411D01*
X105546525Y-108406632D01*
X105753368Y-108613475D01*
X105935534Y-108735195D01*
X105818645Y-108804822D01*
X105602412Y-108999731D01*
X105428359Y-109233080D01*
X105303175Y-109495901D01*
X105258524Y-109643110D01*
X105379845Y-109873000D01*
X106573000Y-109873000D01*
X106573000Y-109853000D01*
X106827000Y-109853000D01*
X106827000Y-109873000D01*
X108020155Y-109873000D01*
X108141476Y-109643110D01*
X108096825Y-109495901D01*
X107971641Y-109233080D01*
X107797588Y-108999731D01*
X107581355Y-108804822D01*
X107464466Y-108735195D01*
X107646632Y-108613475D01*
X107853475Y-108406632D01*
X108015990Y-108163411D01*
X108127932Y-107893158D01*
X108185000Y-107606260D01*
X108185000Y-107313740D01*
X108127932Y-107026842D01*
X108015990Y-106756589D01*
X107853475Y-106513368D01*
X107646632Y-106306525D01*
X107403411Y-106144010D01*
X107133158Y-106032068D01*
X106846260Y-105975000D01*
X106553740Y-105975000D01*
X106266842Y-106032068D01*
X105996589Y-106144010D01*
X105753368Y-106306525D01*
X105546525Y-106513368D01*
X105384010Y-106756589D01*
X105272068Y-107026842D01*
X105215000Y-107313740D01*
X100660000Y-107313740D01*
X100660000Y-102998061D01*
X117265000Y-102998061D01*
X117265000Y-103201939D01*
X117304774Y-103401898D01*
X117382795Y-103590256D01*
X117496063Y-103759774D01*
X117640226Y-103903937D01*
X117809744Y-104017205D01*
X117998102Y-104095226D01*
X118198061Y-104135000D01*
X118401939Y-104135000D01*
X118601898Y-104095226D01*
X118790256Y-104017205D01*
X118959774Y-103903937D01*
X119003711Y-103860000D01*
X121596289Y-103860000D01*
X121640226Y-103903937D01*
X121809744Y-104017205D01*
X121998102Y-104095226D01*
X122198061Y-104135000D01*
X122401939Y-104135000D01*
X122601898Y-104095226D01*
X122790256Y-104017205D01*
X122959774Y-103903937D01*
X123103937Y-103759774D01*
X123217205Y-103590256D01*
X123290167Y-103414110D01*
X123382156Y-103432408D01*
X123586034Y-103432408D01*
X123785993Y-103392634D01*
X123974351Y-103314613D01*
X124143869Y-103201345D01*
X124288032Y-103057182D01*
X124401300Y-102887664D01*
X124479321Y-102699306D01*
X124519095Y-102499347D01*
X124519095Y-102474012D01*
X125182277Y-102474012D01*
X125226214Y-102517949D01*
X125395732Y-102631217D01*
X125584090Y-102709238D01*
X125784049Y-102749012D01*
X125987927Y-102749012D01*
X126187886Y-102709238D01*
X126376244Y-102631217D01*
X126545762Y-102517949D01*
X126689925Y-102373786D01*
X126803193Y-102204268D01*
X126881214Y-102015910D01*
X126920988Y-101815951D01*
X126920988Y-101612073D01*
X126881214Y-101412114D01*
X126803193Y-101223756D01*
X126689925Y-101054238D01*
X126545762Y-100910075D01*
X126376244Y-100796807D01*
X126187886Y-100718786D01*
X125987927Y-100679012D01*
X125784049Y-100679012D01*
X125584090Y-100718786D01*
X125395732Y-100796807D01*
X125226214Y-100910075D01*
X125182277Y-100954012D01*
X124204814Y-100954012D01*
X124167491Y-100950336D01*
X124130168Y-100954012D01*
X124130158Y-100954012D01*
X124018505Y-100965009D01*
X123875244Y-101008466D01*
X123743214Y-101079038D01*
X123683501Y-101128044D01*
X123627490Y-101174011D01*
X123603692Y-101203010D01*
X123444293Y-101362408D01*
X123382156Y-101362408D01*
X123182197Y-101402182D01*
X123047034Y-101458169D01*
X122998462Y-101385475D01*
X122854299Y-101241312D01*
X122684781Y-101128044D01*
X122496423Y-101050023D01*
X122296464Y-101010249D01*
X122092586Y-101010249D01*
X121892627Y-101050023D01*
X121704269Y-101128044D01*
X121534751Y-101241312D01*
X121490814Y-101285249D01*
X120207063Y-101285249D01*
X120169740Y-101281573D01*
X120132417Y-101285249D01*
X120132408Y-101285249D01*
X120062830Y-101292102D01*
X120001939Y-101279990D01*
X119798061Y-101279990D01*
X119598102Y-101319764D01*
X119409744Y-101397785D01*
X119240226Y-101511053D01*
X119096063Y-101655216D01*
X118982795Y-101824734D01*
X118904774Y-102013092D01*
X118865000Y-102213051D01*
X118865000Y-102232737D01*
X118790256Y-102182795D01*
X118601898Y-102104774D01*
X118401939Y-102065000D01*
X118198061Y-102065000D01*
X117998102Y-102104774D01*
X117809744Y-102182795D01*
X117640226Y-102296063D01*
X117496063Y-102440226D01*
X117382795Y-102609744D01*
X117304774Y-102798102D01*
X117265000Y-102998061D01*
X100660000Y-102998061D01*
X100660000Y-99298061D01*
X105665000Y-99298061D01*
X105665000Y-99501939D01*
X105704774Y-99701898D01*
X105782795Y-99890256D01*
X105896063Y-100059774D01*
X106040226Y-100203937D01*
X106209744Y-100317205D01*
X106398102Y-100395226D01*
X106598061Y-100435000D01*
X106801939Y-100435000D01*
X107001898Y-100395226D01*
X107190256Y-100317205D01*
X107359774Y-100203937D01*
X107403711Y-100160000D01*
X109224130Y-100160000D01*
X109309744Y-100217205D01*
X109498102Y-100295226D01*
X109698061Y-100335000D01*
X109901939Y-100335000D01*
X110101898Y-100295226D01*
X110290256Y-100217205D01*
X110459774Y-100103937D01*
X110603937Y-99959774D01*
X110717205Y-99790256D01*
X110795226Y-99601898D01*
X110835000Y-99401939D01*
X110835000Y-99198061D01*
X110795226Y-98998102D01*
X110717205Y-98809744D01*
X110603937Y-98640226D01*
X110459774Y-98496063D01*
X110290256Y-98382795D01*
X110101898Y-98304774D01*
X109901939Y-98265000D01*
X109698061Y-98265000D01*
X109498102Y-98304774D01*
X109309744Y-98382795D01*
X109140226Y-98496063D01*
X108996289Y-98640000D01*
X107403711Y-98640000D01*
X107359774Y-98596063D01*
X107190256Y-98482795D01*
X107001898Y-98404774D01*
X106801939Y-98365000D01*
X106598061Y-98365000D01*
X106398102Y-98404774D01*
X106209744Y-98482795D01*
X106040226Y-98596063D01*
X105896063Y-98740226D01*
X105782795Y-98909744D01*
X105704774Y-99098102D01*
X105665000Y-99298061D01*
X100660000Y-99298061D01*
X100660000Y-98215010D01*
X100705820Y-98239502D01*
X100825518Y-98275812D01*
X100950000Y-98288072D01*
X102650000Y-98288072D01*
X102774482Y-98275812D01*
X102894180Y-98239502D01*
X103004494Y-98180537D01*
X103101185Y-98101185D01*
X103180537Y-98004494D01*
X103239502Y-97894180D01*
X103261513Y-97821620D01*
X103393368Y-97953475D01*
X103636589Y-98115990D01*
X103906842Y-98227932D01*
X104193740Y-98285000D01*
X104486260Y-98285000D01*
X104773158Y-98227932D01*
X105043411Y-98115990D01*
X105286632Y-97953475D01*
X105493475Y-97746632D01*
X105615195Y-97564466D01*
X105684822Y-97681355D01*
X105879731Y-97897588D01*
X106113080Y-98071641D01*
X106375901Y-98196825D01*
X106523110Y-98241476D01*
X106753000Y-98120155D01*
X106753000Y-96927000D01*
X107007000Y-96927000D01*
X107007000Y-98120155D01*
X107236890Y-98241476D01*
X107384099Y-98196825D01*
X107646920Y-98071641D01*
X107880269Y-97897588D01*
X108075178Y-97681355D01*
X108224157Y-97431252D01*
X108321481Y-97156891D01*
X108200814Y-96927000D01*
X107007000Y-96927000D01*
X106753000Y-96927000D01*
X106733000Y-96927000D01*
X106733000Y-96673000D01*
X106753000Y-96673000D01*
X106753000Y-96653000D01*
X107007000Y-96653000D01*
X107007000Y-96673000D01*
X108200814Y-96673000D01*
X108321481Y-96443109D01*
X108224157Y-96168748D01*
X108075178Y-95918645D01*
X107880269Y-95702412D01*
X107823408Y-95660000D01*
X129340000Y-95660000D01*
X129340001Y-124340000D01*
%TD*%
M02*
