M48
; DRILL file {KiCad 5.1.6-1.fc32} date Sun Jun  7 18:14:13 2020
; FORMAT={-:-/ absolute / inch / decimal}
; #@! TF.CreationDate,2020-06-07T18:14:13-07:00
; #@! TF.GenerationSoftware,Kicad,Pcbnew,5.1.6-1.fc32
FMAT,2
INCH
T1C0.0157
T2C0.0394
%
G90
G05
T1
X4.0276Y-4.0118
X4.2008Y-3.9134
X4.3228Y-3.9094
X4.4724Y-4.126
X4.6102Y-4.8661
X4.6457Y-4.689
X4.6575Y-4.0591
X4.7205Y-4.0281
X4.7913Y-4.7913
X4.8108Y-4.0175
X4.815Y-4.0591
X4.8274Y-3.9573
X4.8616Y-4.0314
X4.9016Y-4.0433
X4.9561Y-4.0045
X5.0551Y-3.9094
T2
X4.2008Y-4.2307
X4.2008Y-4.3307
X4.2008Y-4.4307
X4.2008Y-4.5307
X4.2008Y-4.6307
X4.2008Y-4.7307
X4.2008Y-4.8307
X4.0079Y-3.811
X4.1079Y-3.811
X4.2079Y-3.811
T0
M30
